<?xml version="1.0" encoding="UTF-8"?>
<!DOCTYPE svg PUBLIC "-//W3C//DTD SVG 1.1//EN" "http://www.w3.org/Graphics/SVG/1.1/DTD/svg11.dtd">
<svg xmlns="http://www.w3.org/2000/svg" version="1.1" width="707px" height="276px" style="shape-rendering:geometricPrecision; text-rendering:geometricPrecision; image-rendering:optimizeQuality; fill-rule:evenodd; clip-rule:evenodd" xmlns:xlink="http://www.w3.org/1999/xlink">
<g><path style="opacity:1" fill="#f9f9f2" d="M 231.5,65.5 C 229.521,63.8325 227.188,63.1658 224.5,63.5C 224.5,64.8333 224.5,66.1667 224.5,67.5C 223.837,65.9581 223.17,64.2914 222.5,62.5C 219.988,63.3797 217.821,64.713 216,66.5C 214.908,62.3286 215.741,58.6619 218.5,55.5C 219.324,57.7476 220.324,57.9142 221.5,56C 221.167,55.6667 220.833,55.3333 220.5,55C 223.351,53.258 224.018,50.9247 222.5,48C 224.774,45.6557 225.941,42.8224 226,39.5C 227.458,41.524 229.291,41.6907 231.5,40C 231.167,39.6667 230.833,39.3333 230.5,39C 234.152,38.111 237.818,37.7776 241.5,38C 238.063,38.6493 237.896,39.1493 241,39.5C 243.137,38.9233 245.304,38.59 247.5,38.5C 247.67,37.1779 247.337,36.0113 246.5,35C 248.78,34.7674 250.78,33.934 252.5,32.5C 253.881,35.3176 252.881,36.8176 249.5,37C 251.235,37.6514 252.902,37.4847 254.5,36.5C 255.696,36.8457 255.696,37.3457 254.5,38C 250.774,39.0432 251.107,39.5432 255.5,39.5C 256.053,44.3765 256.053,48.8765 255.5,53C 257.512,54.1516 257.678,55.3183 256,56.5C 254.058,56.6269 252.058,56.2936 250,55.5C 248.674,55.7549 247.674,56.4216 247,57.5C 245.333,54.8333 243.667,54.8333 242,57.5C 241.692,56.6919 241.192,56.0253 240.5,55.5C 239.347,60.0236 236.347,62.0236 231.5,61.5C 231.5,62.8333 231.5,64.1667 231.5,65.5 Z"/></g>
<g><path style="opacity:1" fill="#f7f6f6" d="M 231.5,65.5 C 231.5,64.1667 231.5,62.8333 231.5,61.5C 236.347,62.0236 239.347,60.0236 240.5,55.5C 241.192,56.0253 241.692,56.6919 242,57.5C 243.667,54.8333 245.333,54.8333 247,57.5C 247.674,56.4216 248.674,55.7549 250,55.5C 252.058,56.2936 254.058,56.6269 256,56.5C 257.678,55.3183 257.512,54.1516 255.5,53C 256.053,48.8765 256.053,44.3765 255.5,39.5C 251.107,39.5432 250.774,39.0432 254.5,38C 255.696,37.3457 255.696,36.8457 254.5,36.5C 252.902,37.4847 251.235,37.6514 249.5,37C 252.881,36.8176 253.881,35.3176 252.5,32.5C 250.78,33.934 248.78,34.7674 246.5,35C 247.337,36.0113 247.67,37.1779 247.5,38.5C 245.304,38.59 243.137,38.9233 241,39.5C 237.896,39.1493 238.063,38.6493 241.5,38C 237.818,37.7776 234.152,38.111 230.5,39C 230.833,39.3333 231.167,39.6667 231.5,40C 229.291,41.6907 227.458,41.524 226,39.5C 225.941,42.8224 224.774,45.6557 222.5,48C 224.018,50.9247 223.351,53.258 220.5,55C 220.833,55.3333 221.167,55.6667 221.5,56C 220.324,57.9142 219.324,57.7476 218.5,55.5C 215.741,58.6619 214.908,62.3286 216,66.5C 217.821,64.713 219.988,63.3797 222.5,62.5C 223.17,64.2914 223.837,65.9581 224.5,67.5C 218.109,70.102 211.443,72.102 204.5,73.5C 204.491,71.6916 204.991,70.0249 206,68.5C 212.292,58.7509 218.458,48.9175 224.5,39C 234.696,35.3231 245.029,32.1564 255.5,29.5C 258.614,38.2893 260.947,47.2893 262.5,56.5C 252.122,59.3445 241.789,62.3445 231.5,65.5 Z"/></g>
<g><path style="opacity:1" fill="#f6f4f4" d="M 231.5,65.5 C 229.401,66.6118 227.067,67.2785 224.5,67.5C 224.5,66.1667 224.5,64.8333 224.5,63.5C 227.188,63.1658 229.521,63.8325 231.5,65.5 Z"/></g>
<g><path style="opacity:1" fill="#faf9f3" d="M 104.5,92.5 C 104.5,92.8333 104.5,93.1667 104.5,93.5C 102.876,93.3601 101.71,94.0267 101,95.5C 99.4374,92.9557 97.9374,92.9557 96.5,95.5C 95.6786,98.4465 95.1786,101.447 95,104.5C 92.9974,103.783 90.8307,103.45 88.5,103.5C 88.4361,104.365 88.1027,105.365 87.5,106.5C 85.0629,107.803 82.8962,109.47 81,111.5C 80.7003,109.934 81.2003,108.601 82.5,107.5C 82.9175,106.778 83.5842,106.278 84.5,106C 82.5,105.667 80.5,105.333 78.5,105C 81.5443,104.641 81.8776,103.974 79.5,103C 82.2174,100.35 82.0507,97.8504 79,95.5C 78.6667,96.1667 78.3333,96.8333 78,97.5C 76.9339,94.4369 74.7672,92.9369 71.5,93C 73.9913,92.3741 73.9913,91.5407 71.5,90.5C 76.268,89.4751 80.9347,88.1418 85.5,86.5C 88.6262,87.2016 91.9595,87.3683 95.5,87C 96.7111,85.8869 96.7111,84.7202 95.5,83.5C 97.9565,80.7777 98.6231,80.9443 97.5,84C 102.168,84.1438 103.835,86.3105 102.5,90.5C 102.855,91.5223 103.522,92.189 104.5,92.5 Z"/></g>
<g><path style="opacity:1" fill="#f6f6f5" d="M 197.5,46.5 C 199.914,47.7767 200.081,49.4434 198,51.5C 191.959,61.7499 185.792,71.9165 179.5,82C 161.5,87.6667 143.5,93.3333 125.5,99C 120.858,100.032 119.692,98.5322 122,94.5C 128.304,84.718 134.471,74.8846 140.5,65C 159.623,58.9027 178.623,52.7361 197.5,46.5 Z"/></g>
<g><path style="opacity:1" fill="#f9f9f2" d="M 182.5,54.5 C 183.688,55.6843 184.855,55.6843 186,54.5C 187.333,55.1667 188.333,56.1667 189,57.5C 189.333,56.8333 189.667,56.1667 190,55.5C 190.638,56.6086 191.138,57.7753 191.5,59C 190.518,60.0544 189.351,60.5544 188,60.5C 187.517,61.448 187.351,62.448 187.5,63.5C 185.876,63.6399 184.71,62.9733 184,61.5C 184.141,63.4623 183.974,65.2957 183.5,67C 183.905,67.9454 184.572,68.6121 185.5,69C 182.768,69.3981 180.935,70.8981 180,73.5C 179.323,71.311 178.156,70.9776 176.5,72.5C 176.306,74.2633 176.306,76.0967 176.5,78C 175.095,79.2692 173.429,79.7692 171.5,79.5C 171.649,80.552 171.483,81.552 171,82.5C 169.796,81.5294 169.296,80.5294 169.5,79.5C 168.402,80.6155 167.235,80.6155 166,79.5C 165.05,80.0223 164.216,80.689 163.5,81.5C 162.5,80.8333 161.5,80.1667 160.5,79.5C 159.968,81.0755 159.635,83.0755 159.5,85.5C 156.018,85.1271 153.018,86.1271 150.5,88.5C 145.702,87.433 140.702,87.433 135.5,88.5C 135.67,89.8221 135.337,90.9887 134.5,92C 132.744,92.2022 131.078,92.7022 129.5,93.5C 131.762,95.5076 131.262,95.841 128,94.5C 127.192,92.4213 127.359,90.4213 128.5,88.5C 128.489,89.4415 128.989,90.1081 130,90.5C 132.024,90.2005 132.524,89.3671 131.5,88C 132.685,86.647 134.019,85.4803 135.5,84.5C 135.023,83.5224 134.357,82.6891 133.5,82C 135.271,78.7204 137.271,75.5538 139.5,72.5C 140.651,71.269 141.817,71.269 143,72.5C 144.098,71.0325 145.598,70.1992 147.5,70C 144.957,69.8603 142.623,69.1937 140.5,68C 144.928,67.6562 149.261,66.3229 153.5,64C 157.222,63.7618 160.889,63.2618 164.5,62.5C 165.842,63.9023 166.676,63.5689 167,61.5C 170.9,64.2131 174.734,64.0464 178.5,61C 177.552,60.5172 176.552,60.3505 175.5,60.5C 175.5,59.5 175.5,58.5 175.5,57.5C 178.481,57.8176 180.815,56.8176 182.5,54.5 Z"/></g>
<g><path style="opacity:1" fill="#f8f8f8" d="M 58.5,90.5 C 58.3893,91.1174 58.056,91.6174 57.5,92C 59.8782,92.5112 62.2115,93.1779 64.5,94C 60.1898,95.5031 59.8564,97.1697 63.5,99C 62.4477,100.716 63.1144,101.716 65.5,102C 65.2716,102.399 64.9382,102.565 64.5,102.5C 63.1788,106.623 64.5122,109.957 68.5,112.5C 71.1023,112.83 73.7689,112.33 76.5,111C 74.8988,110.727 73.3988,110.227 72,109.5C 71.7613,108.212 72.2613,107.212 73.5,106.5C 76.5448,106.508 79.5448,106.841 82.5,107.5C 81.2003,108.601 80.7003,109.934 81,111.5C 82.8962,109.47 85.0629,107.803 87.5,106.5C 88.1027,105.365 88.4361,104.365 88.5,103.5C 90.8307,103.45 92.9974,103.783 95,104.5C 95.1786,101.447 95.6786,98.4465 96.5,95.5C 97.9374,92.9557 99.4374,92.9557 101,95.5C 101.71,94.0267 102.876,93.3601 104.5,93.5C 101.386,98.2215 98.3857,103.055 95.5,108C 88.256,110.644 80.9226,112.977 73.5,115C 77.8206,115.499 82.1539,115.666 86.5,115.5C 84.7078,116.309 82.7078,116.809 80.5,117C 82.3969,118.11 84.2302,118.276 86,117.5C 87.5868,118.846 87.4202,120.179 85.5,121.5C 79.364,121.028 78.5306,122.361 83,125.5C 83.6172,126.449 83.4506,127.282 82.5,128C 84.2711,130.113 85.7711,129.947 87,127.5C 87.1897,129.973 87.1897,132.64 87,135.5C 86.6667,135.167 86.3333,134.833 86,134.5C 83.723,135.117 81.5563,135.784 79.5,136.5C 76.4135,136.457 73.4135,136.29 70.5,136C 71.8333,136.667 71.8333,137.333 70.5,138C 73.4816,138.498 76.4816,138.665 79.5,138.5C 79.5,138.833 79.5,139.167 79.5,139.5C 76.8333,139.5 74.1667,139.5 71.5,139.5C 71.5,140.5 71.5,141.5 71.5,142.5C 77.0262,142.179 82.3595,142.512 87.5,143.5C 79.7767,143.8 72.1101,143.467 64.5,142.5C 63.6679,133.184 63.1679,123.851 63,114.5C 60.5281,107.585 58.3615,100.585 56.5,93.5C 56.6399,91.9704 57.3065,90.9704 58.5,90.5 Z M 72.5,96.5 C 76.7069,96.6938 78.0402,98.6938 76.5,102.5C 73.2249,104.214 70.8916,103.381 69.5,100C 70.365,98.6412 71.365,97.4745 72.5,96.5 Z M 74.5,125.5 C 79.2137,125.201 80.8804,127.201 79.5,131.5C 73.2899,132.967 71.6232,130.967 74.5,125.5 Z"/></g>
<g><path style="opacity:1" fill="#f7f6f5" d="M 104.5,92.5 C 103.522,92.189 102.855,91.5223 102.5,90.5C 103.835,86.3105 102.168,84.1438 97.5,84C 98.6231,80.9443 97.9565,80.7777 95.5,83.5C 96.7111,84.7202 96.7111,85.8869 95.5,87C 91.9595,87.3683 88.6262,87.2016 85.5,86.5C 80.9347,88.1418 76.268,89.4751 71.5,90.5C 73.9913,91.5407 73.9913,92.3741 71.5,93C 74.7672,92.9369 76.9339,94.4369 78,97.5C 78.3333,96.8333 78.6667,96.1667 79,95.5C 82.0507,97.8504 82.2174,100.35 79.5,103C 81.8776,103.974 81.5443,104.641 78.5,105C 80.5,105.333 82.5,105.667 84.5,106C 83.5842,106.278 82.9175,106.778 82.5,107.5C 79.5448,106.841 76.5448,106.508 73.5,106.5C 72.0521,104.865 70.0521,103.865 67.5,103.5C 67.1203,105.021 66.9536,106.687 67,108.5C 65.3375,106.842 64.5041,104.842 64.5,102.5C 64.9382,102.565 65.2716,102.399 65.5,102C 63.1144,101.716 62.4477,100.716 63.5,99C 59.8564,97.1697 60.1898,95.5031 64.5,94C 62.2115,93.1779 59.8782,92.5112 57.5,92C 58.056,91.6174 58.3893,91.1174 58.5,90.5C 76.9666,84.2161 95.6332,78.5494 114.5,73.5C 114.657,74.8734 114.49,76.2068 114,77.5C 110.809,82.5644 107.642,87.5644 104.5,92.5 Z M 72.5,96.5 C 71.365,97.4745 70.365,98.6412 69.5,100C 70.8916,103.381 73.2249,104.214 76.5,102.5C 78.0402,98.6938 76.7069,96.6938 72.5,96.5 Z"/></g>
<g><path style="opacity:1" fill="#f9f9f2" d="M 64.5,102.5 C 64.5041,104.842 65.3375,106.842 67,108.5C 66.9536,106.687 67.1203,105.021 67.5,103.5C 70.0521,103.865 72.0521,104.865 73.5,106.5C 72.2613,107.212 71.7613,108.212 72,109.5C 73.3988,110.227 74.8988,110.727 76.5,111C 73.7689,112.33 71.1023,112.83 68.5,112.5C 64.5122,109.957 63.1788,106.623 64.5,102.5 Z"/></g>
<g><path style="opacity:1" fill="#f8f8f8" d="M 450.5,179.5 C 451.962,178.542 453.295,177.376 454.5,176C 452.131,175.464 450.131,174.297 448.5,172.5C 447.904,173.716 447.737,175.049 448,176.5C 441.136,171.636 436.636,165.136 434.5,157C 436.267,155.882 438.101,155.382 440,155.5C 441.762,155.944 441.595,156.444 439.5,157C 440.527,157.513 441.527,158.013 442.5,158.5C 447.64,174.568 458.306,179.735 474.5,174C 483.505,166.89 483.839,159.224 475.5,151C 465.986,146.077 456.32,141.41 446.5,137C 439.977,131.996 437.81,125.496 440,117.5C 442.737,109.034 448.57,104.201 457.5,103C 464.649,102.088 471.649,102.755 478.5,105C 480.286,105.785 481.786,106.951 483,108.5C 483.888,113.249 484.054,117.916 483.5,122.5C 482.178,122.67 481.011,122.337 480,121.5C 473.946,107.368 464.613,104.368 452,112.5C 449.554,117.324 450.387,121.491 454.5,125C 464.81,129.488 474.81,134.488 484.5,140C 493.349,148.65 494.849,158.484 489,169.5C 484.269,175.458 478.102,179.292 470.5,181C 465.167,181.667 459.833,181.667 454.5,181C 452.942,180.79 451.609,180.29 450.5,179.5 Z"/></g>
<g><path style="opacity:1" fill="#f8f8f8" d="M 293.5,103.5 C 300.833,103.5 308.167,103.5 315.5,103.5C 313.938,106.715 312.938,109.882 312.5,113C 319.947,129.666 326.78,146.166 333,162.5C 336.913,153.675 341.079,145.009 345.5,136.5C 342.278,128.388 338.778,120.388 335,112.5C 331.774,110.131 329.608,107.131 328.5,103.5C 335.841,103.334 343.174,103.5 350.5,104C 350.957,104.414 351.291,104.914 351.5,105.5C 348.905,110.653 349.405,115.653 353,120.5C 354.84,118.319 356.007,115.819 356.5,113C 355.328,109.696 353.995,106.529 352.5,103.5C 358.683,103.047 364.683,103.547 370.5,105C 364.558,112.212 359.891,120.212 356.5,129C 360.674,139.845 365.507,150.345 371,160.5C 377.305,144.722 383.472,128.889 389.5,113C 387.992,109.829 386.659,106.662 385.5,103.5C 390.833,103.5 396.167,103.5 401.5,103.5C 399.632,107.563 397.465,111.563 395,115.5C 387,136.167 379,156.833 371,177.5C 370.101,179.327 368.767,180.66 367,181.5C 366.228,181.355 365.561,181.022 365,180.5C 359.924,168.683 354.591,157.017 349,145.5C 343.182,157.136 337.349,168.802 331.5,180.5C 329.994,181.747 328.494,181.747 327,180.5C 318.138,159.581 309.471,138.581 301,117.5C 298.709,112.578 296.209,107.911 293.5,103.5 Z"/></g>
<g><path style="opacity:1" fill="#f9f9f9" d="M 405.5,103.5 C 412.863,103.169 420.197,103.503 427.5,104.5C 425.056,107.054 423.389,110.054 422.5,113.5C 422.921,132.737 423.088,152.07 423,171.5C 423.606,174.548 425.106,177.048 427.5,179C 420.342,180.462 413.008,180.962 405.5,180.5C 405.351,179.448 405.517,178.448 406,177.5C 408.043,176.421 409.376,174.754 410,172.5C 410.667,152.167 410.667,131.833 410,111.5C 409.047,109.545 407.713,107.878 406,106.5C 405.517,105.552 405.351,104.552 405.5,103.5 Z"/></g>
<g><path style="opacity:1" fill="#f9f9f9" d="M 497.5,103.5 C 504.863,103.169 512.197,103.503 519.5,104.5C 518.139,106.028 516.972,107.695 516,109.5C 515.772,117.528 515.272,125.528 514.5,133.5C 515.156,135.453 515.489,137.453 515.5,139.5C 529.5,139.5 543.5,139.5 557.5,139.5C 557.666,130.161 557.5,120.827 557,111.5C 556.047,109.545 554.713,107.878 553,106.5C 552.517,105.552 552.351,104.552 552.5,103.5C 559.863,103.169 567.197,103.503 574.5,104.5C 572.808,106.359 571.308,108.359 570,110.5C 569.333,131.167 569.333,151.833 570,172.5C 570.69,175.196 572.19,177.363 574.5,179C 567.342,180.462 560.008,180.962 552.5,180.5C 552.351,179.448 552.517,178.448 553,177.5C 555.043,176.421 556.376,174.754 557,172.5C 557.5,163.173 557.666,153.839 557.5,144.5C 543.163,144.333 528.829,144.5 514.5,145C 515.612,152.446 515.612,160.113 514.5,168C 514.588,171.889 516.088,175.055 519,177.5C 519.483,178.448 519.649,179.448 519.5,180.5C 512.167,180.5 504.833,180.5 497.5,180.5C 498.687,178.095 500.187,175.761 502,173.5C 502.667,152.5 502.667,131.5 502,110.5C 501,108.833 499.667,107.5 498,106.5C 497.517,105.552 497.351,104.552 497.5,103.5 Z"/></g>
<g><path style="opacity:1" fill="#f9f9f9" d="M 585.5,103.5 C 592.014,103.045 598.347,103.545 604.5,105C 603.789,106.255 602.956,107.421 602,108.5C 601.178,130.876 601.344,153.21 602.5,175.5C 610.543,176.864 618.543,176.698 626.5,175C 630.884,172.283 634.218,168.616 636.5,164C 637.448,163.517 638.448,163.351 639.5,163.5C 639.007,169.122 638.007,174.622 636.5,180C 619.503,180.5 602.503,180.667 585.5,180.5C 585.608,178.217 586.441,176.217 588,174.5C 588.667,152.833 588.667,131.167 588,109.5C 586.441,107.783 585.608,105.783 585.5,103.5 Z"/></g>
<g><path style="opacity:1" fill="#f9f9f9" d="M 628.5,103.5 C 636.528,103.169 644.528,103.502 652.5,104.5C 649.848,106.592 649.014,109.258 650,112.5C 656.725,121.56 663.058,130.893 669,140.5C 675,131.833 681,123.167 687,114.5C 687.526,110.996 686.193,108.329 683,106.5C 682.517,105.552 682.351,104.552 682.5,103.5C 689.532,103.17 696.532,103.503 703.5,104.5C 692.132,116.896 681.965,130.229 673,144.5C 672.333,154.833 672.333,165.167 673,175.5C 675.556,176.219 676.723,177.886 676.5,180.5C 669.167,180.5 661.833,180.5 654.5,180.5C 655.195,178.022 656.695,176.022 659,174.5C 659.667,165.167 659.667,155.833 659,146.5C 648.799,132.062 638.632,117.729 628.5,103.5 Z"/></g>
<g><path style="opacity:1" fill="#f9f9f2" d="M 69.5,115.5 C 71.3969,116.984 73.0636,118.818 74.5,121C 72.6063,122.079 72.273,123.413 73.5,125C 72.3474,126.883 70.6807,127.716 68.5,127.5C 68.7771,124.552 68.4438,121.719 67.5,119C 68.5,118.667 69.5,118.333 70.5,118C 69.7476,117.329 69.4142,116.496 69.5,115.5 Z"/></g>
<g><path style="opacity:1" fill="#f8f6f6" d="M 272.5,137.5 C 271.527,135.052 271.194,132.385 271.5,129.5C 271.662,127.473 271.495,125.473 271,123.5C 269.898,128.73 269.065,128.73 268.5,123.5C 268.551,121.9 268.884,120.4 269.5,119C 261.921,118.816 254.421,118.316 247,117.5C 244.975,119.725 242.642,120.059 240,118.5C 239.502,121.482 239.335,124.482 239.5,127.5C 236.813,127.336 234.146,127.503 231.5,128C 229.043,129.512 229.043,130.846 231.5,132C 230.829,132.986 230.829,134.153 231.5,135.5C 229.704,134.207 228.037,132.707 226.5,131C 226.833,130.667 227.167,130.333 227.5,130C 226.181,129.805 224.847,129.972 223.5,130.5C 228.605,125.897 233.605,121.064 238.5,116C 249.828,115.5 261.162,115.333 272.5,115.5C 272.5,122.833 272.5,130.167 272.5,137.5 Z"/></g>
<g><path style="opacity:1" fill="#f6f1f5" d="M 86.5,115.5 C 88.5,115.5 90.5,115.5 92.5,115.5C 92.9731,116.906 93.9731,117.573 95.5,117.5C 95.5,118.833 95.5,120.167 95.5,121.5C 92.1667,121.5 88.8333,121.5 85.5,121.5C 87.4202,120.179 87.5868,118.846 86,117.5C 84.2302,118.276 82.3969,118.11 80.5,117C 82.7078,116.809 84.7078,116.309 86.5,115.5 Z"/></g>
<g><path style="opacity:1" fill="#f9f9f2" d="M 95.5,117.5 C 96.7901,119.14 98.4567,119.64 100.5,119C 99.3044,118.346 99.3044,117.846 100.5,117.5C 101.192,118.025 101.692,118.692 102,119.5C 104.804,117.656 107.97,116.989 111.5,117.5C 111.5,120.833 111.5,124.167 111.5,127.5C 110.022,127.238 108.689,127.571 107.5,128.5C 108.855,129.675 108.688,130.675 107,131.5C 107.035,127.755 106.035,127.088 104,129.5C 103.505,131.473 103.338,133.473 103.5,135.5C 100.833,135.5 98.1667,135.5 95.5,135.5C 95.5,136.5 95.5,137.5 95.5,138.5C 92.6146,138.194 89.9479,138.527 87.5,139.5C 84.8333,139.5 82.1667,139.5 79.5,139.5C 79.5,139.167 79.5,138.833 79.5,138.5C 79.5,137.833 79.5,137.167 79.5,136.5C 81.5563,135.784 83.723,135.117 86,134.5C 86.3333,134.833 86.6667,135.167 87,135.5C 87.1897,132.64 87.1897,129.973 87,127.5C 85.7711,129.947 84.2711,130.113 82.5,128C 83.4506,127.282 83.6172,126.449 83,125.5C 78.5306,122.361 79.364,121.028 85.5,121.5C 88.8333,121.5 92.1667,121.5 95.5,121.5C 95.5,120.167 95.5,118.833 95.5,117.5 Z"/></g>
<g><path style="opacity:1" fill="#f9f9f3" d="M 159.5,117.5 C 172.796,118.386 186.13,118.386 199.5,117.5C 200.289,117.783 200.956,118.283 201.5,119C 200.141,120.204 199.141,121.704 198.5,123.5C 197.167,124.167 196.167,125.167 195.5,126.5C 194.311,127.429 192.978,127.762 191.5,127.5C 191.785,129.288 191.452,130.955 190.5,132.5C 188.851,133.648 187.351,134.981 186,136.5C 184.187,135.391 183.354,136.058 183.5,138.5C 181.473,138.338 179.473,138.505 177.5,139C 178.5,139.333 179.5,139.667 180.5,140C 179.906,140.464 179.239,140.631 178.5,140.5C 169.5,140.5 160.5,140.5 151.5,140.5C 148.64,139.756 145.64,139.089 142.5,138.5C 139.898,139.654 137.232,140.154 134.5,140C 134.957,139.586 135.291,139.086 135.5,138.5C 134.167,137.38 133.667,136.047 134,134.5C 136.064,135.591 138.231,135.758 140.5,135C 139.034,134.365 137.7,133.531 136.5,132.5C 135.473,133.791 134.473,133.791 133.5,132.5C 133.833,131.5 134.5,130.833 135.5,130.5C 135.435,130.938 135.601,131.272 136,131.5C 136.689,130.643 137.522,129.977 138.5,129.5C 139.432,131.766 140.766,133.766 142.5,135.5C 143.631,133.926 143.798,132.259 143,130.5C 142.346,131.696 141.846,131.696 141.5,130.5C 144.309,127.962 147.643,126.962 151.5,127.5C 151.768,124.881 151.435,122.381 150.5,120C 151.416,119.626 152.25,119.126 153,118.5C 154.667,118.833 156.333,119.167 158,119.5C 158.278,118.584 158.778,117.918 159.5,117.5 Z"/></g>
<g><path style="opacity:1" fill="#f9f9f2" d="M 271.5,129.5 C 270.539,131.265 270.205,133.265 270.5,135.5C 267.273,136.744 263.939,137.91 260.5,139C 264.232,139.972 263.899,140.472 259.5,140.5C 256.833,139.833 254.167,139.167 251.5,138.5C 242.384,140.319 238.384,140.319 239.5,138.5C 239.5,137.5 239.5,136.5 239.5,135.5C 236.833,135.5 234.167,135.5 231.5,135.5C 230.829,134.153 230.829,132.986 231.5,132C 229.043,130.846 229.043,129.512 231.5,128C 234.146,127.503 236.813,127.336 239.5,127.5C 239.335,124.482 239.502,121.482 240,118.5C 242.642,120.059 244.975,119.725 247,117.5C 254.421,118.316 261.921,118.816 269.5,119C 268.884,120.4 268.551,121.9 268.5,123.5C 269.065,128.73 269.898,128.73 271,123.5C 271.495,125.473 271.662,127.473 271.5,129.5 Z"/></g>
<g><path style="opacity:1" fill="#f8f6f7" d="M 92.5,115.5 C 103.167,115.5 113.833,115.5 124.5,115.5C 124.649,116.552 124.483,117.552 124,118.5C 115.116,127.019 105.949,135.185 96.5,143C 95.2068,143.49 93.8734,143.657 92.5,143.5C 92.5,142.5 92.5,141.5 92.5,140.5C 90.5853,140.784 88.9187,140.451 87.5,139.5C 89.9479,138.527 92.6146,138.194 95.5,138.5C 95.5,137.5 95.5,136.5 95.5,135.5C 98.1667,135.5 100.833,135.5 103.5,135.5C 103.338,133.473 103.505,131.473 104,129.5C 106.035,127.088 107.035,127.755 107,131.5C 108.688,130.675 108.855,129.675 107.5,128.5C 108.689,127.571 110.022,127.238 111.5,127.5C 111.5,124.167 111.5,120.833 111.5,117.5C 107.97,116.989 104.804,117.656 102,119.5C 101.692,118.692 101.192,118.025 100.5,117.5C 99.3044,117.846 99.3044,118.346 100.5,119C 98.4567,119.64 96.7901,119.14 95.5,117.5C 93.9731,117.573 92.9731,116.906 92.5,115.5 Z"/></g>
<g><path style="opacity:1" fill="#f9f3f2" d="M 95.5,127.5 C 96.8333,127.5 98.1667,127.5 99.5,127.5C 99.5,128.833 99.5,130.167 99.5,131.5C 98.1667,131.5 96.8333,131.5 95.5,131.5C 95.5,130.167 95.5,128.833 95.5,127.5 Z"/></g>
<g><path style="opacity:1" fill="#f7f6f5" d="M 175.5,143.5 C 176.9,142.9 177.9,141.9 178.5,140.5C 179.239,140.631 179.906,140.464 180.5,140C 179.5,139.667 178.5,139.333 177.5,139C 179.473,138.505 181.473,138.338 183.5,138.5C 183.354,136.058 184.187,135.391 186,136.5C 187.351,134.981 188.851,133.648 190.5,132.5C 191.452,130.955 191.785,129.288 191.5,127.5C 192.978,127.762 194.311,127.429 195.5,126.5C 196.167,125.167 197.167,124.167 198.5,123.5C 199.141,121.704 200.141,120.204 201.5,119C 200.956,118.283 200.289,117.783 199.5,117.5C 186.167,116.167 172.833,116.167 159.5,117.5C 158.778,117.918 158.278,118.584 158,119.5C 156.333,119.167 154.667,118.833 153,118.5C 152.25,119.126 151.416,119.626 150.5,120C 151.435,122.381 151.768,124.881 151.5,127.5C 147.643,126.962 144.309,127.962 141.5,130.5C 141.846,131.696 142.346,131.696 143,130.5C 143.798,132.259 143.631,133.926 142.5,135.5C 140.766,133.766 139.432,131.766 138.5,129.5C 137.522,129.977 136.689,130.643 136,131.5C 135.601,131.272 135.435,130.938 135.5,130.5C 140.605,125.897 145.605,121.064 150.5,116C 171.167,115.333 191.833,115.333 212.5,116C 212.833,116.333 213.167,116.667 213.5,117C 204.131,126.037 194.465,134.704 184.5,143C 181.518,143.498 178.518,143.665 175.5,143.5 Z"/></g>
<g><path style="opacity:1" fill="#f4f3f2" d="M 199.5,117.5 C 186.13,118.386 172.796,118.386 159.5,117.5C 172.833,116.167 186.167,116.167 199.5,117.5 Z"/></g>
<g><path style="opacity:1" fill="#f9f9f2" d="M 231.5,135.5 C 233.292,136.309 235.292,136.809 237.5,137C 232.936,138.475 228.27,139.308 223.5,139.5C 223.34,137.801 223.506,136.134 224,134.5C 225.388,135.554 226.888,135.72 228.5,135C 226.34,134.004 224.673,132.504 223.5,130.5C 224.847,129.972 226.181,129.805 227.5,130C 227.167,130.333 226.833,130.667 226.5,131C 228.037,132.707 229.704,134.207 231.5,135.5 Z"/></g>
<g><path style="opacity:1" fill="#faf2f8" d="M 79.5,136.5 C 79.5,137.167 79.5,137.833 79.5,138.5C 76.4816,138.665 73.4816,138.498 70.5,138C 71.8333,137.333 71.8333,136.667 70.5,136C 73.4135,136.29 76.4135,136.457 79.5,136.5 Z"/></g>
<g><path style="opacity:1" fill="#f5f4f3" d="M 133.5,132.5 C 134.473,133.791 135.473,133.791 136.5,132.5C 137.7,133.531 139.034,134.365 140.5,135C 138.231,135.758 136.064,135.591 134,134.5C 133.667,136.047 134.167,137.38 135.5,138.5C 135.291,139.086 134.957,139.586 134.5,140C 137.232,140.154 139.898,139.654 142.5,138.5C 145.64,139.089 148.64,139.756 151.5,140.5C 152.263,141.268 153.263,141.768 154.5,142C 153.944,142.383 153.611,142.883 153.5,143.5C 143.828,143.666 134.161,143.5 124.5,143C 123.549,142.282 123.383,141.449 124,140.5C 126.747,137.246 129.914,134.58 133.5,132.5 Z"/></g>
<g><path style="opacity:1" fill="#f3f1f0" d="M 79.5,139.5 C 82.1667,139.5 84.8333,139.5 87.5,139.5C 88.9187,140.451 90.5853,140.784 92.5,140.5C 92.5,141.5 92.5,142.5 92.5,143.5C 90.8333,143.5 89.1667,143.5 87.5,143.5C 82.3595,142.512 77.0262,142.179 71.5,142.5C 71.5,141.5 71.5,140.5 71.5,139.5C 74.1667,139.5 76.8333,139.5 79.5,139.5 Z"/></g>
<g><path style="opacity:1" fill="#f5f4f2" d="M 271.5,129.5 C 271.194,132.385 271.527,135.052 272.5,137.5C 272.739,139.467 272.406,141.301 271.5,143C 251.833,143.667 232.167,143.667 212.5,143C 211.549,142.282 211.383,141.449 212,140.5C 215.41,136.584 219.243,133.251 223.5,130.5C 224.673,132.504 226.34,134.004 228.5,135C 226.888,135.72 225.388,135.554 224,134.5C 223.506,136.134 223.34,137.801 223.5,139.5C 228.27,139.308 232.936,138.475 237.5,137C 235.292,136.809 233.292,136.309 231.5,135.5C 234.167,135.5 236.833,135.5 239.5,135.5C 239.5,136.5 239.5,137.5 239.5,138.5C 238.384,140.319 242.384,140.319 251.5,138.5C 254.167,139.167 256.833,139.833 259.5,140.5C 263.899,140.472 264.232,139.972 260.5,139C 263.939,137.91 267.273,136.744 270.5,135.5C 270.205,133.265 270.539,131.265 271.5,129.5 Z"/></g>
<g><path style="opacity:1" fill="#eae8e8" d="M 151.5,140.5 C 160.5,140.5 169.5,140.5 178.5,140.5C 177.9,141.9 176.9,142.9 175.5,143.5C 168.167,143.5 160.833,143.5 153.5,143.5C 153.611,142.883 153.944,142.383 154.5,142C 153.263,141.768 152.263,141.268 151.5,140.5 Z"/></g>
<g><path style="opacity:1" fill="#f9f9f9" d="M 91.5,155.5 C 91.5,156.167 91.1667,156.5 90.5,156.5C 85.4889,156.334 80.4889,156.501 75.5,157C 73.563,157.122 72.2297,157.955 71.5,159.5C 70.8333,159.5 70.1667,159.5 69.5,159.5C 68.7784,159.082 68.2784,158.416 68,157.5C 67.5,184.831 67.3334,212.165 67.5,239.5C 66.1789,242.235 67.1789,243.902 70.5,244.5C 70.5,244.833 70.5,245.167 70.5,245.5C 69.3915,246.29 68.0581,246.79 66.5,247C 70.8206,247.499 75.1539,247.666 79.5,247.5C 87.3382,248.52 95.3382,248.52 103.5,247.5C 140.833,247.5 178.167,247.5 215.5,247.5C 233.17,247.667 250.836,247.5 268.5,247C 267.663,245.989 267.33,244.822 267.5,243.5C 267.279,242.265 266.612,241.265 265.5,240.5C 265.624,239.893 265.957,239.56 266.5,239.5C 266.833,239.5 267.167,239.5 267.5,239.5C 267.833,239.5 268.167,239.5 268.5,239.5C 268.364,242.337 269.031,245.004 270.5,247.5C 271.183,247.137 271.85,246.804 272.5,246.5C 272.586,247.496 272.252,248.329 271.5,249C 202.5,249.667 133.5,249.667 64.5,249C 63.3381,218.238 63.1714,187.405 64,156.5C 73.0828,155.515 82.2494,155.182 91.5,155.5 Z"/></g>
<g><path style="opacity:1" fill="#f9f8f8" d="M 214.5,155.5 C 233.503,155.333 252.503,155.5 271.5,156C 272.056,156.383 272.389,156.883 272.5,157.5C 266.833,157.5 261.167,157.5 255.5,157.5C 241.765,157.258 228.099,156.591 214.5,155.5 Z"/></g>
<g><path style="opacity:1" fill="#f5ecee" d="M 127.5,155.5 C 143.5,155.5 159.5,155.5 175.5,155.5C 173.5,156.167 171.5,156.833 169.5,157.5C 154.496,157.667 139.496,157.5 124.5,157C 125.737,156.768 126.737,156.268 127.5,155.5 Z"/></g>
<g><path style="opacity:1" fill="#f6f2f4" d="M 175.5,155.5 C 185.833,155.5 196.167,155.5 206.5,155.5C 204.974,157.13 202.974,157.963 200.5,158C 202.81,158.497 205.143,158.663 207.5,158.5C 202.167,159.833 196.833,159.833 191.5,158.5C 184.687,157.509 177.687,157.175 170.5,157.5C 170.167,157.5 169.833,157.5 169.5,157.5C 171.5,156.833 173.5,156.167 175.5,155.5 Z"/></g>
<g><path style="opacity:1" fill="#f5f1f3" d="M 90.5,156.5 C 89.7375,157.268 88.7375,157.768 87.5,158C 98.1615,158.5 108.828,158.667 119.5,158.5C 103.675,159.496 87.6754,159.83 71.5,159.5C 72.2297,157.955 73.563,157.122 75.5,157C 80.4889,156.501 85.4889,156.334 90.5,156.5 Z"/></g>
<g><path style="opacity:1" fill="#f0eaee" d="M 91.5,155.5 C 95.5,155.5 99.5,155.5 103.5,155.5C 105.743,156.812 108.41,157.478 111.5,157.5C 114.167,157.333 116.833,157.167 119.5,157C 120.056,156.617 120.389,156.117 120.5,155.5C 122.833,155.5 125.167,155.5 127.5,155.5C 126.737,156.268 125.737,156.768 124.5,157C 139.496,157.5 154.496,157.667 169.5,157.5C 169.833,157.5 170.167,157.5 170.5,157.5C 170.5,157.833 170.5,158.167 170.5,158.5C 153.583,159.47 136.583,159.47 119.5,158.5C 108.828,158.667 98.1615,158.5 87.5,158C 88.7375,157.768 89.7375,157.268 90.5,156.5C 91.1667,156.5 91.5,156.167 91.5,155.5 Z"/></g>
<g><path style="opacity:1" fill="#f5f2f5" d="M 103.5,155.5 C 109.167,155.5 114.833,155.5 120.5,155.5C 120.389,156.117 120.056,156.617 119.5,157C 116.833,157.167 114.167,157.333 111.5,157.5C 108.41,157.478 105.743,156.812 103.5,155.5 Z"/></g>
<g><path style="opacity:1" fill="#efe9ef" d="M 170.5,158.5 C 170.5,158.167 170.5,157.833 170.5,157.5C 177.687,157.175 184.687,157.509 191.5,158.5C 184.486,159.587 177.486,159.587 170.5,158.5 Z"/></g>
<g><path style="opacity:1" fill="#eee9e9" d="M 206.5,155.5 C 209.167,155.5 211.833,155.5 214.5,155.5C 228.099,156.591 241.765,157.258 255.5,157.5C 245.013,158.494 234.346,158.828 223.5,158.5C 218.167,158.5 212.833,158.5 207.5,158.5C 205.143,158.663 202.81,158.497 200.5,158C 202.974,157.963 204.974,157.13 206.5,155.5 Z"/></g>
<g><path style="opacity:1" fill="#f2f2f2" d="M 442.5,158.5 C 441.527,158.013 440.527,157.513 439.5,157C 441.595,156.444 441.762,155.944 440,155.5C 438.101,155.382 436.267,155.882 434.5,157C 436.636,165.136 441.136,171.636 448,176.5C 447.737,175.049 447.904,173.716 448.5,172.5C 450.131,174.297 452.131,175.464 454.5,176C 453.295,177.376 451.962,178.542 450.5,179.5C 438.303,174.806 432.303,165.806 432.5,152.5C 435.518,152.335 438.518,152.502 441.5,153C 442.406,154.699 442.739,156.533 442.5,158.5 Z"/></g>
<g><path style="opacity:1" fill="#faf3f5" d="M 69.5,159.5 C 69.6666,186.169 69.5,212.835 69,239.5C 68.2208,242.097 67.7208,242.097 67.5,239.5C 67.3334,212.165 67.5,184.831 68,157.5C 68.2784,158.416 68.7784,159.082 69.5,159.5 Z"/></g>
<g><path style="opacity:1" fill="#f9f9f2" d="M 119.5,158.5 C 136.583,159.47 153.583,159.47 170.5,158.5C 177.486,159.587 184.486,159.587 191.5,158.5C 196.833,159.833 202.167,159.833 207.5,158.5C 212.833,158.5 218.167,158.5 223.5,158.5C 238.995,159.388 254.328,159.721 269.5,159.5C 267.692,186.138 268.359,212.804 271.5,239.5C 270.5,239.5 269.5,239.5 268.5,239.5C 268.167,239.5 267.833,239.5 267.5,239.5C 267.831,231.472 267.498,223.472 266.5,215.5C 266.094,223.455 266.094,231.455 266.5,239.5C 265.957,239.56 265.624,239.893 265.5,240.5C 266.612,241.265 267.279,242.265 267.5,243.5C 265.621,243.393 265.288,243.893 266.5,245C 266,245.5 265.5,246 265,246.5C 248.559,245.286 232.059,245.286 215.5,246.5C 167.18,245.539 118.846,245.206 70.5,245.5C 70.5,245.167 70.5,244.833 70.5,244.5C 67.1789,243.902 66.1789,242.235 67.5,239.5C 67.7208,242.097 68.2208,242.097 69,239.5C 69.5,212.835 69.6666,186.169 69.5,159.5C 70.1667,159.5 70.8333,159.5 71.5,159.5C 87.6754,159.83 103.675,159.496 119.5,158.5 Z M 106.5,183.5 C 148.833,183.5 191.167,183.5 233.5,183.5C 236.5,183.5 239.5,183.5 242.5,183.5C 242.768,186.119 242.435,188.619 241.5,191C 192.168,191.5 142.834,191.667 93.5,191.5C 93.5,189.833 93.5,188.167 93.5,186.5C 93.5,185.5 93.5,184.5 93.5,183.5C 97.8333,183.5 102.167,183.5 106.5,183.5 Z M 113.5,213.5 C 152.833,213.5 192.167,213.5 231.5,213.5C 235.167,213.5 238.833,213.5 242.5,213.5C 242.663,215.857 242.497,218.19 242,220.5C 240.989,221.337 239.822,221.67 238.5,221.5C 234.833,221.5 231.167,221.5 227.5,221.5C 199.5,221.5 171.5,221.5 143.5,221.5C 134.833,221.5 126.167,221.5 117.5,221.5C 115.5,221.5 113.5,221.5 111.5,221.5C 105.5,221.5 99.5,221.5 93.5,221.5C 93.5,218.833 93.5,216.167 93.5,213.5C 100.167,213.5 106.833,213.5 113.5,213.5 Z"/></g>
<g><path style="opacity:1" fill="#f5f3f2" d="M 255.5,157.5 C 261.167,157.5 266.833,157.5 272.5,157.5C 272.5,162.167 272.5,166.833 272.5,171.5C 271.778,171.082 271.278,170.416 271,169.5C 270.627,171.698 270.127,173.865 269.5,176C 270.306,189.134 270.806,202.301 271,215.5C 271.17,205.658 271.67,195.991 272.5,186.5C 272.5,206.5 272.5,226.5 272.5,246.5C 271.85,246.804 271.183,247.137 270.5,247.5C 269.031,245.004 268.364,242.337 268.5,239.5C 269.5,239.5 270.5,239.5 271.5,239.5C 268.359,212.804 267.692,186.138 269.5,159.5C 254.328,159.721 238.995,159.388 223.5,158.5C 234.346,158.828 245.013,158.494 255.5,157.5 Z"/></g>
<g><path style="opacity:1" fill="#faf5f5" d="M 175.5,176.5 C 180.875,176.172 186.208,176.505 191.5,177.5C 188.833,177.833 186.167,178.167 183.5,178.5C 180.41,178.478 177.743,177.812 175.5,176.5 Z"/></g>
<g><path style="opacity:1" fill="#f5f3f3" d="M 175.5,180.5 C 175.5,180.833 175.5,181.167 175.5,181.5C 152.142,180.844 129.142,181.51 106.5,183.5C 102.167,183.5 97.8333,183.5 93.5,183.5C 93.5,184.5 93.5,185.5 93.5,186.5C 92.776,188.218 92.1094,190.052 91.5,192C 95.5101,192.501 99.5101,193.001 103.5,193.5C 97.5999,196.772 92.5999,195.772 88.5,190.5C 86.8646,185.257 88.6979,181.59 94,179.5C 121.14,179.229 148.307,179.563 175.5,180.5 Z"/></g>
<g><path style="opacity:1" fill="#f2f3ec" d="M 175.5,180.5 C 180.833,180.5 186.167,180.5 191.5,180.5C 191.5,180.833 191.5,181.167 191.5,181.5C 186.167,182.833 180.833,182.833 175.5,181.5C 175.5,181.167 175.5,180.833 175.5,180.5 Z"/></g>
<g><path style="opacity:1" fill="#f5f3f3" d="M 245.5,179.5 C 244.978,181.219 243.978,182.552 242.5,183.5C 239.5,183.5 236.5,183.5 233.5,183.5C 230.359,182.679 227.025,182.179 223.5,182C 212.839,181.5 202.172,181.333 191.5,181.5C 191.5,181.167 191.5,180.833 191.5,180.5C 207.543,179.661 223.543,179.661 239.5,180.5C 239.5,178.833 239.5,177.167 239.5,175.5C 241.924,175.192 244.257,175.526 246.5,176.5C 245.873,177.417 245.539,178.417 245.5,179.5 Z"/></g>
<g><path style="opacity:1" fill="#eeecec" d="M 175.5,181.5 C 180.833,182.833 186.167,182.833 191.5,181.5C 202.172,181.333 212.839,181.5 223.5,182C 227.025,182.179 230.359,182.679 233.5,183.5C 191.167,183.5 148.833,183.5 106.5,183.5C 129.142,181.51 152.142,180.844 175.5,181.5 Z"/></g>
<g><path style="opacity:1" fill="#f0ecec" d="M 272.5,171.5 C 272.5,176.5 272.5,181.5 272.5,186.5C 271.67,195.991 271.17,205.658 271,215.5C 270.806,202.301 270.306,189.134 269.5,176C 270.127,173.865 270.627,171.698 271,169.5C 271.278,170.416 271.778,171.082 272.5,171.5 Z"/></g>
<g><path style="opacity:1" fill="#f8f7f7" d="M 245.5,179.5 C 245.824,180.812 246.491,181.645 247.5,182C 247.095,182.945 246.428,183.612 245.5,184C 246.167,184.333 246.833,184.667 247.5,185C 248.013,186.576 247.346,187.909 245.5,189C 246.664,191.542 245.664,192.875 242.5,193C 243.308,193.308 243.975,193.808 244.5,194.5C 242.235,195.647 239.902,195.814 237.5,195C 236.182,194.306 235.349,193.473 235,192.5C 191.274,194.694 147.441,195.027 103.5,193.5C 99.5101,193.001 95.5101,192.501 91.5,192C 92.1094,190.052 92.776,188.218 93.5,186.5C 93.5,188.167 93.5,189.833 93.5,191.5C 142.834,191.667 192.168,191.5 241.5,191C 242.435,188.619 242.768,186.119 242.5,183.5C 243.978,182.552 244.978,181.219 245.5,179.5 Z"/></g>
<g><path style="opacity:1" fill="#f9f3f2" d="M 90.5,196.5 C 92.3084,196.491 93.9751,196.991 95.5,198C 94.6667,198.167 93.8333,198.333 93,198.5C 91.6244,198.316 90.7911,197.649 90.5,196.5 Z"/></g>
<g><path style="opacity:1" fill="#faf3f3" d="M 119.5,196.5 C 143.494,197.143 167.494,197.643 191.5,198C 164.833,198.667 138.167,198.667 111.5,198C 114.365,197.817 117.031,197.317 119.5,196.5 Z"/></g>
<g><path style="opacity:1" fill="#faf4f4" d="M 199.5,196.5 C 204.859,196.67 210.192,197.17 215.5,198C 212.833,198.167 210.167,198.333 207.5,198.5C 204.41,198.478 201.743,197.812 199.5,196.5 Z"/></g>
<g><path style="opacity:1" fill="#f9f9f9" d="M 337.5,210.5 C 336.352,211.895 335.352,211.728 334.5,210C 332.5,209.333 330.5,209.333 328.5,210C 330.384,210.216 332.051,210.883 333.5,212C 332.551,212.617 331.718,212.451 331,211.5C 328.851,213.724 329.351,215.224 332.5,216C 329.72,216.269 327.554,215.102 326,212.5C 326.109,213.769 325.942,214.769 325.5,215.5C 324.418,208.769 327.418,206.269 334.5,208C 335.942,208.377 336.942,209.21 337.5,210.5 Z"/></g>
<g><path style="opacity:1" fill="#f8f8f8" d="M 390.5,207.5 C 394.936,207.21 399.27,207.71 403.5,209C 408.684,213.625 408.684,218.292 403.5,223C 399.3,224.367 394.967,224.867 390.5,224.5C 390.5,218.833 390.5,213.167 390.5,207.5 Z M 397.5,214.5 C 399.97,215.36 400.137,216.694 398,218.5C 397.51,217.207 397.343,215.873 397.5,214.5 Z"/></g>
<g><path style="opacity:1" fill="#f8f8f8" d="M 412.5,207.5 C 416.437,207.207 420.27,207.54 424,208.5C 423.34,212.665 423.507,216.832 424.5,221C 424.415,222.107 424.081,223.107 423.5,224C 419.514,224.499 415.514,224.666 411.5,224.5C 411.214,218.741 411.548,213.075 412.5,207.5 Z"/></g>
<g><path style="opacity:1" fill="#f8f8f8" d="M 569.5,207.5 C 574.348,206.76 578.015,208.427 580.5,212.5C 578.401,215.984 575.901,216.318 573,213.5C 569.667,215.167 569.667,216.833 573,218.5C 576.187,215.589 578.687,216.089 580.5,220C 577.564,224.216 573.564,225.549 568.5,224C 561.704,218.173 562.038,212.673 569.5,207.5 Z"/></g>
<g><path style="opacity:1" fill="#f7f7f7" d="M 622.5,207.5 C 626.846,207.334 631.179,207.501 635.5,208C 637.182,211.092 636.349,213.259 633,214.5C 632.821,217.553 632.321,220.553 631.5,223.5C 629.929,224.309 628.262,224.643 626.5,224.5C 626.5,220.833 626.5,217.167 626.5,213.5C 625.167,213.5 623.833,213.5 622.5,213.5C 622.5,211.5 622.5,209.5 622.5,207.5 Z"/></g>
<g><path style="opacity:1" fill="#f7f8f8" d="M 658.5,207.5 C 662.5,207.5 666.5,207.5 670.5,207.5C 670.931,211.422 669.931,214.922 667.5,218C 671.427,219.152 672.094,221.152 669.5,224C 665.848,224.499 662.182,224.665 658.5,224.5C 657.796,220.197 659.13,216.697 662.5,214C 658.97,213.328 657.637,211.162 658.5,207.5 Z"/></g>
<g><path style="opacity:1" fill="#f8f8f8" d="M 359.5,208.5 C 361.833,208.5 364.167,208.5 366.5,208.5C 366.833,221.833 367.167,221.833 367.5,208.5C 372.918,207.094 375.252,209.094 374.5,214.5C 375.125,220.536 372.458,223.87 366.5,224.5C 363.889,224.444 361.722,223.444 360,221.5C 359.501,217.179 359.334,212.846 359.5,208.5 Z"/></g>
<g><path style="opacity:1" fill="#f8f8f8" d="M 531.5,208.5 C 534.482,208.104 537.149,208.771 539.5,210.5C 541.868,208.777 544.534,208.11 547.5,208.5C 548.631,213.72 548.631,218.887 547.5,224C 544.647,224.664 541.981,224.164 539.5,222.5C 537.682,223.636 535.682,224.303 533.5,224.5C 531.97,224.36 530.97,223.693 530.5,222.5C 531.859,221.993 532.859,220.993 533.5,219.5C 535.48,223.133 537.48,222.966 539.5,219C 538.781,216.444 537.114,215.277 534.5,215.5C 534.541,219.243 533.874,219.41 532.5,216C 533.833,215.333 533.833,214.667 532.5,214C 535.167,213.333 535.167,212.667 532.5,212C 532.957,211.586 533.291,211.086 533.5,210.5C 532.757,209.818 532.091,209.151 531.5,208.5 Z"/></g>
<g><path style="opacity:1" fill="#f7f7f7" d="M 588.5,208.5 C 591.119,208.232 593.619,208.565 596,209.5C 597.833,213.833 599.667,218.167 601.5,222.5C 598.351,225.106 595.184,225.106 592,222.5C 589.453,224.177 586.62,224.844 583.5,224.5C 584.766,219.035 586.433,213.701 588.5,208.5 Z"/></g>
<g><path style="opacity:1" fill="#f8f7f7" d="M 239.5,224.5 C 241.199,224.66 242.866,224.494 244.5,224C 241.518,223.502 238.518,223.335 235.5,223.5C 236.5,222.833 237.5,222.167 238.5,221.5C 239.822,221.67 240.989,221.337 242,220.5C 242.497,218.19 242.663,215.857 242.5,213.5C 238.833,213.5 235.167,213.5 231.5,213.5C 226.167,212.833 220.833,212.167 215.5,211.5C 221.509,211.666 227.509,211.499 233.5,211C 231.122,210.026 231.456,209.359 234.5,209C 238.77,207.925 243.103,207.425 247.5,207.5C 246.871,213.557 246.871,219.557 247.5,225.5C 244.281,225.157 242.114,225.824 241,227.5C 240.167,227.333 239.333,227.167 238.5,227C 239.252,226.329 239.586,225.496 239.5,224.5 Z"/></g>
<g><path style="opacity:1" fill="#f5f6f5" d="M 513.5,207.5 C 517.437,207.207 521.27,207.54 525,208.5C 525.339,210.834 525.172,213.168 524.5,215.5C 524.732,217.798 525.399,219.965 526.5,222C 526.095,222.945 525.428,223.612 524.5,224C 520.848,224.499 517.182,224.665 513.5,224.5C 513.5,218.833 513.5,213.167 513.5,207.5 Z"/></g>
<g><path style="opacity:1" fill="#f8f8f8" d="M 354.5,219.5 C 356.116,221.416 355.782,222.916 353.5,224C 349.848,224.499 346.182,224.665 342.5,224.5C 342.5,223.5 342.5,222.5 342.5,221.5C 342.93,217.86 343.93,214.36 345.5,211C 352.802,209.605 354.135,211.605 349.5,217C 350.5,217.333 351.5,217.667 352.5,218C 351.448,219.119 350.281,219.619 349,219.5C 348.421,215.614 347.588,215.614 346.5,219.5C 346.709,220.086 347.043,220.586 347.5,221C 349.433,221.251 351.266,221.751 353,222.5C 353.232,221.263 353.732,220.263 354.5,219.5 Z"/></g>
<g><path style="opacity:1" fill="#f0f1f2" d="M 354.5,219.5 C 353.732,220.263 353.232,221.263 353,222.5C 351.266,221.751 349.433,221.251 347.5,221C 347.043,220.586 346.709,220.086 346.5,219.5C 347.588,215.614 348.421,215.614 349,219.5C 350.281,219.619 351.448,219.119 352.5,218C 351.5,217.667 350.5,217.333 349.5,217C 354.135,211.605 352.802,209.605 345.5,211C 343.93,214.36 342.93,217.86 342.5,221.5C 342.5,216.833 342.5,212.167 342.5,207.5C 346.514,207.334 350.514,207.501 354.5,208C 353.316,211.815 353.316,215.649 354.5,219.5 Z"/></g>
<g><path style="opacity:1" fill="#f4f5f4" d="M 440.5,221.5 C 439.064,216.805 437.731,216.639 436.5,221C 434.209,221.015 432.042,221.182 430,221.5C 429.312,220.668 429.479,220.002 430.5,219.5C 431.833,219.167 433.167,218.833 434.5,218.5C 432.851,217.352 431.351,216.019 430,214.5C 429.617,215.056 429.117,215.389 428.5,215.5C 427.825,208.818 430.825,206.318 437.5,208C 441.597,209.324 442.264,211.49 439.5,214.5C 440.711,215.874 441.711,217.374 442.5,219C 442.361,220.301 441.695,221.134 440.5,221.5 Z"/></g>
<g><path style="opacity:1" fill="#f6f6f6" d="M 446.5,207.5 C 450.437,207.207 454.27,207.54 458,208.5C 457.595,213.538 457.429,218.538 457.5,223.5C 453.635,224.806 449.802,224.806 446,223.5C 445.219,218.083 445.385,212.75 446.5,207.5 Z"/></g>
<g><path style="opacity:1" fill="#f7f7f7" d="M 485.5,207.5 C 495.586,207.564 498.919,212.231 495.5,221.5C 492.29,224.222 488.624,225.056 484.5,224C 479.931,221.459 478.431,217.625 480,212.5C 481.107,209.887 482.94,208.22 485.5,207.5 Z M 486.5,214.5 C 488.346,214.222 489.68,214.889 490.5,216.5C 489.311,217.429 487.978,217.762 486.5,217.5C 486.5,216.5 486.5,215.5 486.5,214.5 Z"/></g>
<g><path style="opacity:1" fill="#f7f7f7" d="M 604.5,207.5 C 608.936,207.21 613.27,207.71 617.5,209C 618.097,210.062 618.43,211.228 618.5,212.5C 617.619,216.415 617.286,220.248 617.5,224C 613.164,223.178 608.83,223.345 604.5,224.5C 604.5,218.833 604.5,213.167 604.5,207.5 Z"/></g>
<g><path style="opacity:1" fill="#f5f3f5" d="M 127.5,211.5 C 156.833,211.5 186.167,211.5 215.5,211.5C 220.833,212.167 226.167,212.833 231.5,213.5C 192.167,213.5 152.833,213.5 113.5,213.5C 118.167,212.833 122.833,212.167 127.5,211.5 Z"/></g>
<g><path style="opacity:1" fill="#f1f1f2" d="M 337.5,210.5 C 338.65,212.267 337.983,213.433 335.5,214C 337.919,215.509 338.919,217.675 338.5,220.5C 337.5,220.5 336.5,220.5 335.5,220.5C 335.719,219.325 335.386,218.325 334.5,217.5C 334.331,218.397 333.998,219.397 333.5,220.5C 332.167,221.833 330.833,221.833 329.5,220.5C 328.575,221.357 327.908,222.357 327.5,223.5C 325.707,223.116 324.707,221.95 324.5,220C 325.148,218.56 325.481,217.06 325.5,215.5C 325.942,214.769 326.109,213.769 326,212.5C 327.554,215.102 329.72,216.269 332.5,216C 329.351,215.224 328.851,213.724 331,211.5C 331.718,212.451 332.551,212.617 333.5,212C 332.051,210.883 330.384,210.216 328.5,210C 330.5,209.333 332.5,209.333 334.5,210C 335.352,211.728 336.352,211.895 337.5,210.5 Z"/></g>
<g><path style="opacity:1" fill="#f8f8f8" d="M 642.5,208.5 C 644.924,208.192 647.257,208.526 649.5,209.5C 650.643,214.107 652.643,218.273 655.5,222C 652.53,225.146 649.363,225.313 646,222.5C 643.518,224.531 640.852,224.865 638,223.5C 639.365,218.562 640.865,213.562 642.5,208.5 Z"/></g>
<g><path style="opacity:1" fill="#f7f7f7" d="M 468.5,208.5 C 470.833,208.5 473.167,208.5 475.5,208.5C 475.666,212.514 475.499,216.514 475,220.5C 472.487,224.212 468.987,225.378 464.5,224C 462.845,222.556 462.178,220.722 462.5,218.5C 464.46,217.862 466.293,217.862 468,218.5C 468.498,215.183 468.665,211.85 468.5,208.5 Z"/></g>
<g><path style="opacity:1" fill="#e9e9e9" d="M 644.5,214.5 C 645.5,214.5 646.5,214.5 647.5,214.5C 646.588,221.075 645.588,221.075 644.5,214.5 Z"/></g>
<g><path style="opacity:1" fill="#faf4f4" d="M 267.5,239.5 C 267.167,239.5 266.833,239.5 266.5,239.5C 266.094,231.455 266.094,223.455 266.5,215.5C 267.498,223.472 267.831,231.472 267.5,239.5 Z"/></g>
<g><path style="opacity:1" fill="#f2f2f3" d="M 531.5,208.5 C 532.091,209.151 532.757,209.818 533.5,210.5C 533.291,211.086 532.957,211.586 532.5,212C 535.167,212.667 535.167,213.333 532.5,214C 533.833,214.667 533.833,215.333 532.5,216C 533.874,219.41 534.541,219.243 534.5,215.5C 537.114,215.277 538.781,216.444 539.5,219C 537.48,222.966 535.48,223.133 533.5,219.5C 532.859,220.993 531.859,221.993 530.5,222.5C 530.181,217.637 530.514,212.97 531.5,208.5 Z"/></g>
<g><path style="opacity:1" fill="#f9f9f9" d="M 338.5,220.5 C 335.551,224.345 331.884,225.345 327.5,223.5C 327.908,222.357 328.575,221.357 329.5,220.5C 330.833,221.833 332.167,221.833 333.5,220.5C 333.998,219.397 334.331,218.397 334.5,217.5C 335.386,218.325 335.719,219.325 335.5,220.5C 336.5,220.5 337.5,220.5 338.5,220.5 Z"/></g>
<g><path style="opacity:1" fill="#f9f9f9" d="M 440.5,221.5 C 440.047,222.458 439.381,223.292 438.5,224C 434.495,225.098 430.995,224.265 428,221.5C 427.289,219.633 427.789,218.133 429.5,217C 428.944,216.617 428.611,216.117 428.5,215.5C 429.117,215.389 429.617,215.056 430,214.5C 431.351,216.019 432.851,217.352 434.5,218.5C 433.167,218.833 431.833,219.167 430.5,219.5C 429.479,220.002 429.312,220.668 430,221.5C 432.042,221.182 434.209,221.015 436.5,221C 437.731,216.639 439.064,216.805 440.5,221.5 Z"/></g>
<g><path style="opacity:1" fill="#f7f7f6" d="M 127.5,211.5 C 122.833,212.167 118.167,212.833 113.5,213.5C 106.833,213.5 100.167,213.5 93.5,213.5C 93.5,216.167 93.5,218.833 93.5,221.5C 99.5,221.5 105.5,221.5 111.5,221.5C 112.263,222.268 113.263,222.768 114.5,223C 106.989,223.171 99.6552,223.671 92.5,224.5C 90.8211,224.108 89.1545,223.608 87.5,223C 88.8333,222 88.8333,221 87.5,220C 91.5,218.667 91.5,217.333 87.5,216C 87.3412,213.437 87.6746,210.77 88.5,208C 90.8878,207.135 92.3878,207.968 93,210.5C 93.414,210.043 93.914,209.709 94.5,209.5C 95.3279,210.415 96.3279,211.081 97.5,211.5C 107.48,210.581 117.48,210.581 127.5,211.5 Z"/></g>
<g><path style="opacity:1" fill="#efeeee" d="M 111.5,221.5 C 113.5,221.5 115.5,221.5 117.5,221.5C 123.296,222.681 129.296,223.348 135.5,223.5C 138.59,223.478 141.257,222.812 143.5,221.5C 171.5,221.5 199.5,221.5 227.5,221.5C 229.635,223.369 232.302,224.036 235.5,223.5C 238.518,223.335 241.518,223.502 244.5,224C 242.866,224.494 241.199,224.66 239.5,224.5C 228.833,225.833 218.167,225.833 207.5,224.5C 207.918,223.778 208.584,223.278 209.5,223C 208.333,222.833 207.167,222.667 206,222.5C 199.196,223.223 192.363,223.223 185.5,222.5C 181.761,222.514 178.428,223.18 175.5,224.5C 147.774,225.772 120.108,225.772 92.5,224.5C 99.6552,223.671 106.989,223.171 114.5,223C 113.263,222.768 112.263,222.268 111.5,221.5 Z"/></g>
<g><path style="opacity:1" fill="#edefe9" d="M 117.5,221.5 C 126.167,221.5 134.833,221.5 143.5,221.5C 141.257,222.812 138.59,223.478 135.5,223.5C 129.296,223.348 123.296,222.681 117.5,221.5 Z"/></g>
<g><path style="opacity:1" fill="#ecede6" d="M 207.5,224.5 C 196.833,224.5 186.167,224.5 175.5,224.5C 178.428,223.18 181.761,222.514 185.5,222.5C 192.363,223.223 199.196,223.223 206,222.5C 207.167,222.667 208.333,222.833 209.5,223C 208.584,223.278 207.918,223.778 207.5,224.5 Z"/></g>
<g><path style="opacity:1" fill="#f5f5ef" d="M 227.5,221.5 C 231.167,221.5 234.833,221.5 238.5,221.5C 237.5,222.167 236.5,222.833 235.5,223.5C 232.302,224.036 229.635,223.369 227.5,221.5 Z"/></g>
<g><path style="opacity:1" fill="#f9f3f2" d="M 70.5,244.5 C 70.369,243.761 70.5357,243.094 71,242.5C 95.0942,243.328 119.261,243.828 143.5,244C 119.169,244.5 94.8356,244.667 70.5,244.5 Z"/></g>
<g><path style="opacity:1" fill="#f6f0f0" d="M 70.5,245.5 C 118.846,245.206 167.18,245.539 215.5,246.5C 215.5,246.833 215.5,247.167 215.5,247.5C 178.167,247.5 140.833,247.5 103.5,247.5C 95.6618,246.48 87.6618,246.48 79.5,247.5C 75.1539,247.666 70.8206,247.499 66.5,247C 68.0581,246.79 69.3915,246.29 70.5,245.5 Z"/></g>
<g><path style="opacity:1" fill="#f5f3f5" d="M 267.5,243.5 C 267.33,244.822 267.663,245.989 268.5,247C 250.836,247.5 233.17,247.667 215.5,247.5C 215.5,247.167 215.5,246.833 215.5,246.5C 232.059,245.286 248.559,245.286 265,246.5C 265.5,246 266,245.5 266.5,245C 265.288,243.893 265.621,243.393 267.5,243.5 Z"/></g>
<g><path style="opacity:1" fill="#f7f7f0" d="M 103.5,247.5 C 95.3382,248.52 87.3382,248.52 79.5,247.5C 87.6618,246.48 95.6618,246.48 103.5,247.5 Z"/></g>
</svg>
